<svg width="16" height="16" viewBox="0 0 16 16" fill="none" xmlns="http://www.w3.org/2000/svg">
<path d="M6.05469 9.94377L9.94378 6.05469" stroke="#ff642f" stroke-width="1.6" stroke-linecap="round" stroke-linejoin="round"/>
<path d="M8.97091 10.9164L7.35046 12.5369C6.83471 13.0525 6.13528 13.3421 5.40601 13.342C4.67675 13.3419 3.97737 13.0522 3.46171 12.5365C2.94604 12.0209 2.65631 11.3215 2.65625 10.5922C2.65619 9.86298 2.94579 9.16355 3.46137 8.64779L5.08183 7.02734" stroke="#ff642f" stroke-width="1.6" stroke-linecap="round" stroke-linejoin="round"/>
<path d="M10.9174 8.97482L12.5379 7.35437C13.0534 6.83861 13.343 6.13918 13.343 5.40992C13.3429 4.68066 13.0532 3.98128 12.5375 3.46561C12.0219 2.94995 11.3225 2.66022 10.5932 2.66016C9.86396 2.66009 9.16453 2.9497 8.64878 3.46528L7.02832 5.08573" stroke="#ff642f" stroke-width="1.6" stroke-linecap="round" stroke-linejoin="round"/>
</svg>
