<svg width="17" height="16" viewBox="0 0 17 16" fill="none" xmlns="http://www.w3.org/2000/svg">
<path d="M11.5015 2.50001C10.9194 2.49901 10.3451 2.63385 9.8243 2.89381C9.3035 3.15377 8.85054 3.53168 8.50146 3.99747C8.02869 3.36844 7.37008 2.904 6.61882 2.66988C5.86756 2.43576 5.0617 2.44382 4.31528 2.69291C3.56885 2.942 2.91965 3.41951 2.45955 4.05787C1.99944 4.69623 1.75173 5.46311 1.75146 6.25001C1.75146 10.7414 7.99152 14.2875 8.25714 14.4363C8.33179 14.4781 8.41591 14.5 8.50146 14.5C8.58702 14.5 8.67114 14.4781 8.74579 14.4363C9.89345 13.7641 10.9706 12.9782 11.9609 12.0904C14.1443 10.1253 15.2515 8.16031 15.2515 6.25001C15.2503 5.25579 14.8549 4.30262 14.1519 3.5996C13.4489 2.89658 12.4957 2.50113 11.5015 2.50001Z" fill="#7b7b7b"/>
</svg>
