<svg version="1.0" xmlns="http://www.w3.org/2000/svg"
 width="545.000000pt" height="221.000000pt" viewBox="0 0 545.000000 221.000000"
 preserveAspectRatio="xMidYMid meet">

<g transform="translate(0.000000,221.000000) scale(0.100000,-0.100000)"
fill="#000000" stroke="none">
<path d="M2530 2180 c0 -6 34 -59 75 -117 65 -92 75 -112 73 -144 -2 -42 4
-53 132 -216 124 -157 140 -181 140 -202 0 -23 -35 -37 -54 -22 -8 6 -67 92
-132 191 -107 162 -123 181 -155 190 -41 11 -54 25 -138 143 -54 75 -81 103
-81 81 0 -13 144 -206 167 -224 14 -11 35 -20 47 -20 17 0 47 -38 136 -172 63
-95 123 -183 134 -195 24 -28 57 -29 79 -5 26 28 21 56 -20 109 -20 26 -72 95
-116 153 -44 58 -89 115 -100 127 -13 15 -18 31 -14 49 7 39 -4 62 -84 175
-71 100 -89 119 -89 99z"/>
<path d="M2950 2183 c-42 -16 -101 -68 -130 -114 -29 -44 -34 -62 -38 -131 -3
-59 -2 -79 7 -74 6 4 11 31 12 59 1 63 14 102 55 160 55 78 165 110 194 57 26
-49 5 -141 -49 -209 -30 -38 -41 -45 -124 -80 -27 -11 -46 -25 -42 -31 4 -6
14 -5 28 4 12 8 39 19 59 25 20 7 55 30 77 51 55 54 83 112 85 178 1 49 -2 56
-32 83 -31 28 -66 35 -102 22z"/>
<path d="M2460 2134 c0 -9 121 -183 132 -190 28 -18 13 15 -48 100 -60 85 -84
110 -84 90z"/>
<path d="M2583 1619 c-68 -87 -78 -123 -43 -154 33 -30 64 -13 120 70 52 77
56 85 41 85 -5 0 -28 -29 -51 -64 -50 -78 -63 -90 -90 -81 -35 11 -24 50 40
133 33 44 60 82 60 85 0 19 -21 -1 -77 -74z"/>
<path d="M38 1813 c-2 -5 -3 -402 -3 -883 l0 -875 2685 0 2685 0 3 883 2 882
-990 0 -990 0 0 -25 0 -25 956 2 c584 0 959 -3 965 -9 5 -5 8 -329 7 -834 l-3
-824 -2633 0 -2634 0 -4 827 c-2 536 0 829 6 833 5 3 440 6 965 7 l955 1 0 23
0 24 -984 0 c-542 0 -986 -3 -988 -7z"/>
<path d="M2050 1120 c-8 -5 -37 -72 -65 -150 -27 -78 -54 -142 -60 -142 -5 0
-34 66 -63 146 -53 142 -55 146 -83 146 l-29 0 2 -202 c3 -173 5 -203 18 -203
13 0 16 28 20 175 l5 175 47 -125 c26 -69 52 -137 58 -152 19 -55 36 -32 96
130 l59 157 3 -170 c2 -181 6 -205 24 -187 17 17 17 382 0 399 -16 15 -13 15
-32 3z"/>
<path d="M3885 1114 c-67 -35 -94 -80 -102 -170 -13 -151 78 -253 204 -229 90
17 137 88 138 205 0 62 -4 83 -25 120 -42 76 -144 111 -215 74z m146 -50 c36
-33 51 -74 51 -143 1 -108 -46 -171 -127 -171 -92 0 -148 96 -126 214 10 54
36 94 72 114 32 17 105 9 130 -14z"/>
<path d="M800 1111 c0 -4 24 -55 52 -112 49 -97 53 -110 58 -194 4 -71 8 -90
20 -90 12 0 16 18 20 80 5 72 12 92 64 198 32 65 56 121 52 125 -15 15 -39
-18 -80 -108 -24 -52 -47 -94 -52 -92 -5 1 -29 47 -53 102 -33 73 -50 100 -63
100 -10 0 -18 -4 -18 -9z"/>
<path d="M1240 983 c0 -159 8 -198 50 -238 24 -23 41 -29 87 -33 48 -3 64 0
92 20 50 34 59 71 60 241 1 139 0 147 -18 147 -18 0 -20 -10 -23 -161 l-3
-161 -28 -24 c-40 -34 -109 -34 -141 1 -31 33 -36 63 -36 216 0 122 -1 129
-20 129 -19 0 -20 -7 -20 -137z"/>
<path d="M2322 918 c3 -173 5 -203 18 -203 13 0 15 25 15 167 0 91 3 169 6
172 3 4 16 -22 27 -56 47 -138 88 -233 102 -233 14 0 27 31 90 203 19 50 37
92 40 92 3 0 5 -78 5 -172 0 -147 2 -173 15 -173 13 0 15 30 18 203 l2 202
-24 0 c-14 0 -28 -5 -32 -11 -3 -6 -28 -72 -54 -147 -26 -75 -52 -138 -57
-139 -6 -2 -34 64 -64 147 -52 144 -55 150 -82 150 l-27 0 2 -202z"/>
<path d="M2840 1112 c0 -4 25 -57 55 -117 52 -104 55 -114 55 -185 0 -81 9
-106 34 -97 13 5 16 22 16 87 0 77 2 84 55 190 30 60 55 114 55 120 0 5 -8 10
-18 10 -13 0 -29 -27 -61 -100 -25 -57 -49 -100 -57 -100 -8 0 -14 4 -14 10 0
5 -19 50 -41 100 -31 66 -47 90 -60 90 -11 0 -19 -4 -19 -8z"/>
<path d="M3292 918 c3 -173 5 -203 18 -203 13 0 15 26 16 168 1 92 3 169 6
172 2 2 21 -26 42 -63 136 -238 158 -272 182 -272 l24 0 0 200 c0 195 0 200
-21 200 -20 0 -20 -4 -18 -167 1 -93 -2 -167 -6 -166 -6 1 -146 235 -182 306
-10 18 -22 27 -39 27 l-24 0 2 -202z"/>
<path d="M4330 921 c0 -110 4 -202 8 -205 4 -2 14 -1 21 4 11 6 13 40 8 169
-3 89 -2 161 3 161 4 0 31 -65 61 -145 37 -99 58 -145 68 -143 7 2 38 69 69
151 31 81 58 147 62 147 3 0 4 -72 2 -160 -5 -170 -2 -193 23 -184 13 5 15 35
15 205 l0 199 -29 0 c-25 0 -31 -5 -42 -37 -39 -123 -92 -263 -99 -263 -4 0
-32 67 -61 150 -52 144 -55 150 -81 150 l-28 0 0 -199z"/>
</g>
</svg>
